<svg id="visual" viewBox="0 0 900 600" width="900" height="600" xmlns="http://www.w3.org/2000/svg" xmlns:xlink="http://www.w3.org/1999/xlink" version="1.1"><rect x="0" y="0" width="900" height="600" fill="#001220"></rect><path d="M0 323L25 344C50 365 100 407 150 406.8C200 406.7 250 364.3 300 356.5C350 348.7 400 375.3 450 387.5C500 399.7 550 397.3 600 383C650 368.7 700 342.3 750 329.3C800 316.3 850 316.7 875 316.8L900 317L900 601L875 601C850 601 800 601 750 601C700 601 650 601 600 601C550 601 500 601 450 601C400 601 350 601 300 601C250 601 200 601 150 601C100 601 50 601 25 601L0 601Z" fill="#10cab7"></path><path d="M0 413L25 422.5C50 432 100 451 150 452.8C200 454.7 250 439.3 300 436C350 432.7 400 441.3 450 440.5C500 439.7 550 429.3 600 434.8C650 440.3 700 461.7 750 470.2C800 478.7 850 474.3 875 472.2L900 470L900 601L875 601C850 601 800 601 750 601C700 601 650 601 600 601C550 601 500 601 450 601C400 601 350 601 300 601C250 601 200 601 150 601C100 601 50 601 25 601L0 601Z" fill="#0f8694"></path><path d="M0 544L25 545.3C50 546.7 100 549.3 150 538C200 526.7 250 501.3 300 493.8C350 486.3 400 496.7 450 509.7C500 522.7 550 538.3 600 538.5C650 538.7 700 523.3 750 519.8C800 516.3 850 524.7 875 528.8L900 533L900 601L875 601C850 601 800 601 750 601C700 601 650 601 600 601C550 601 500 601 450 601C400 601 350 601 300 601C250 601 200 601 150 601C100 601 50 601 25 601L0 601Z" fill="#2c4755"></path></svg>